<svg version="1.1" id="Layer_1" xmlns="http://www.w3.org/2000/svg" xmlns:xlink="http://www.w3.org/1999/xlink" x="0px" y="0px" width="100%" viewBox="0 0 1042 200" enable-background="new 0 0 1042 200" xml:space="preserve">
	<path fill="#FFFFFF" opacity="1.000000" stroke="none" d="
M536.000000,201.000000 
	C357.666656,201.000000 179.333313,201.000000 1.000000,201.000000 
	C1.000000,182.573746 1.000000,164.253860 1.373818,145.677872 
	C1.875939,149.619537 2.004242,153.817291 2.082351,158.346710 
	C2.076945,159.121536 2.121732,159.564667 2.336350,160.396988 
	C45.001816,160.800674 87.497452,160.815186 130.457825,160.898895 
	C135.746277,160.978088 140.573868,161.110565 145.392395,160.957184 
	C148.895004,160.845703 152.385620,160.356384 155.923004,159.684021 
	C155.450424,158.517944 155.060730,157.582611 154.404007,156.906693 
	C141.216461,143.333694 128.047119,129.742416 114.775520,116.251808 
	C90.072998,91.141617 65.323288,66.077774 40.559425,41.028042 
	C31.672058,32.038074 22.729753,23.101002 13.695211,14.259662 
	C12.513721,13.103437 10.630403,12.664374 8.917322,11.600691 
	C7.176622,9.599094 5.590754,7.889947 3.716307,6.020627 
	C2.618486,4.906969 1.809243,3.953484 1.000000,3.000000 
	C1.332805,2.333333 1.546902,1.216280 2.022388,1.090957 
	C3.112697,0.803585 4.330516,1.000000 5.496566,1.000000 
	C277.019714,1.000000 548.542908,1.000000 820.426392,1.354732 
	C812.694885,2.853376 806.971436,14.025256 808.032715,20.649334 
	C809.404236,29.210306 818.054321,36.873173 825.964783,35.904743 
	C835.759399,34.705643 842.051575,29.596186 842.932617,19.304409 
	C843.746521,9.797734 837.664734,4.738144 830.000000,1.000000 
	C900.882141,1.000000 971.764343,1.000000 1043.000000,1.000000 
	C1043.000000,17.020277 1043.000000,33.043156 1042.531372,49.533016 
	C1033.238159,50.000015 1024.410400,49.878616 1015.592224,50.115383 
	C1014.059937,50.156528 1011.678528,51.366154 1011.193848,52.618427 
	C1005.696350,66.821213 1000.488708,81.136230 995.210083,95.423668 
	C991.921387,104.325027 988.644104,113.230606 984.897461,123.393616 
	C975.431213,98.145370 966.454224,74.201897 957.468933,50.236420 
	C947.180969,50.236420 936.832397,50.236420 926.508850,50.236420 
	C926.723389,51.420547 926.738037,52.438778 927.092041,53.320839 
	C940.593018,86.961220 954.085876,120.604996 967.678955,154.208221 
	C971.385376,163.370880 963.917603,174.980942 954.010864,174.963364 
	C950.141479,174.956497 946.272766,174.538300 942.186218,174.294479 
	C940.746643,182.705704 939.308960,191.105438 937.904541,199.311050 
	C939.535583,199.983673 940.767761,200.491837 942.000000,201.000000 
	C816.311340,201.000000 690.622620,201.000000 564.609009,200.615799 
	C566.680298,199.821075 569.093506,199.490662 571.470093,198.987503 
	C592.060364,194.628128 607.575439,178.857758 607.876648,156.955093 
	C608.343872,122.984154 608.000000,89.002068 608.000000,55.024704 
	C608.000000,53.426334 608.000000,51.827961 608.000000,50.284863 
	C598.019897,50.284863 588.615173,50.284863 578.784790,50.284863 
	C578.784790,54.253510 578.784790,57.950005 578.784790,62.349819 
	C568.740173,51.219254 556.861389,47.102665 542.794983,47.925297 
	C524.537659,48.993023 510.333038,59.651424 504.015228,75.662811 
	C499.261749,87.709587 498.102264,100.068115 499.847046,113.007828 
	C501.605011,126.045670 505.897766,137.394592 515.835327,146.401398 
	C527.641052,157.101364 541.543518,158.748032 556.377686,156.065674 
	C565.153076,154.478867 572.251892,149.445099 578.999451,142.683838 
	C578.999451,147.195343 579.765198,151.035141 578.819153,154.392609 
	C577.415405,159.374313 575.740967,164.804581 572.516907,168.646957 
	C563.941895,178.866516 551.751892,177.961365 540.198486,176.492294 
	C531.114929,175.337265 523.056152,171.023239 516.914307,163.350693 
	C512.742310,170.089447 508.806793,176.151184 505.264923,182.434769 
	C504.615448,183.586990 504.957642,186.360596 505.888428,187.146362 
	C508.952240,189.732803 512.258179,192.311005 515.908813,193.862610 
	C522.437622,196.637527 529.285522,198.661880 536.000000,201.000000 
M415.511383,129.006622 
	C411.353638,124.966133 408.818420,120.135460 407.810425,113.935852 
	C434.438599,113.935852 460.531372,113.935852 487.621033,113.935852 
	C486.713257,105.559166 486.482697,97.509453 484.858002,89.751709 
	C482.036499,76.279221 475.141510,65.097214 463.726135,56.958202 
	C450.163635,47.288303 434.904968,45.880379 419.371185,49.189770 
	C401.507843,52.995464 388.690002,63.714211 381.553680,80.870911 
	C376.909393,92.036507 376.242340,103.432449 377.906860,115.332565 
	C380.791412,135.954926 396.038727,152.427460 415.163177,158.081100 
	C427.582672,161.752594 439.952209,161.573166 452.358246,158.925888 
	C462.391998,156.784836 471.685608,152.859665 479.289886,145.222305 
	C474.943756,138.985123 470.720947,132.924866 466.558075,126.950668 
	C462.364471,129.343048 458.599426,131.876862 454.527863,133.741348 
	C442.323547,139.330063 425.556824,138.438202 415.511383,129.006622 
M284.687897,154.967911 
	C307.830078,166.054749 342.509888,160.507568 356.920990,145.397812 
	C352.785400,139.210709 348.622131,132.982239 344.157166,126.302383 
	C334.198303,135.134720 322.786896,137.945419 310.314697,136.980850 
	C299.708984,136.160629 287.567871,127.535675 285.517303,113.759720 
	C311.641632,113.759720 337.714508,113.759720 364.466400,113.759720 
	C363.960419,105.999077 364.132050,98.512718 362.867737,91.277283 
	C359.945953,74.556328 351.075348,61.666618 335.969910,53.494884 
	C323.912048,46.971806 310.960388,46.683460 297.898224,49.064926 
	C284.733398,51.465103 274.007660,58.288486 266.044891,69.016312 
	C255.680069,82.980362 253.165771,98.690605 255.921814,115.689163 
	C258.808105,133.490829 268.192902,146.276138 284.687897,154.967911 
M663.503296,73.937538 
	C671.946716,70.872879 680.522949,70.830170 688.755310,74.138741 
	C694.154846,76.308838 698.478943,80.299706 698.936401,86.708351 
	C699.262634,91.278297 698.999756,95.890297 698.999756,101.157295 
	C696.215454,99.296799 694.097046,97.567528 691.717834,96.346054 
	C681.680054,91.192635 671.232605,89.681931 659.815735,90.785942 
	C640.595154,92.644562 626.250854,107.671066 628.785889,129.611099 
	C631.064636,149.333115 648.055664,160.262482 665.026550,160.889801 
	C677.495667,161.350708 688.856323,157.438065 699.054688,148.876099 
	C699.054688,152.222122 699.054688,154.948120 699.054688,157.768875 
	C708.837952,157.768875 718.245300,157.768875 728.000000,157.768875 
	C728.000000,155.914017 728.000000,154.285461 728.000000,152.656906 
	C728.000000,129.665497 728.170166,106.671768 727.859009,83.684563 
	C727.795349,78.979515 726.606323,74.012024 724.767395,69.659218 
	C718.529541,54.894562 705.442200,49.572872 690.984009,48.197960 
	C670.118347,46.213730 650.412903,49.980774 633.854858,64.909279 
	C637.175415,70.770607 640.500061,76.817581 644.096802,82.698097 
	C644.437561,83.255196 646.730652,83.218529 647.699341,82.690559 
	C652.766418,79.928864 657.698425,76.919533 663.503296,73.937538 
M163.000000,13.523479 
	C162.666702,32.104244 162.192734,50.683842 162.038132,69.266090 
	C161.870422,89.423859 161.956024,109.584366 162.085556,129.742691 
	C162.095673,131.316116 163.013657,133.123322 164.030212,134.410919 
	C169.684647,141.572937 175.498444,148.609177 181.260818,155.685944 
	C183.509781,158.447906 185.921478,160.190216 189.982040,160.118790 
	C206.304245,159.831726 222.634445,160.000000 238.961700,160.000000 
	C242.899719,160.000000 246.837753,160.000000 250.712082,160.000000 
	C250.712082,150.365997 250.712082,141.297440 250.712082,131.826874 
	C231.358749,131.826874 212.290146,131.826874 193.500000,131.826874 
	C193.500000,89.081818 193.500000,46.745579 193.500000,4.208605 
	C183.481293,3.741951 173.363007,3.270659 163.000000,2.787968 
	C163.000000,6.574580 163.000000,9.554412 163.000000,13.523479 
M902.000000,125.038269 
	C902.000000,108.784538 902.000000,92.530807 902.000000,75.875206 
	C909.592346,75.875206 916.665710,75.875206 923.733215,75.875206 
	C923.733215,67.067299 923.733215,58.669827 923.733215,49.869789 
	C916.402039,49.869789 909.328979,49.869789 901.868225,49.869789 
	C901.868225,40.066204 901.868225,30.663319 901.868225,21.267778 
	C892.064026,21.267778 882.667297,21.267778 872.870605,21.267778 
	C872.870605,30.931589 872.870605,40.334560 872.870605,50.132683 
	C866.733398,50.132683 860.990417,50.132683 855.271240,50.132683 
	C855.271240,58.941940 855.271240,67.339912 855.271240,76.141022 
	C861.274719,76.141022 867.017029,76.141022 873.000000,76.141022 
	C873.000000,96.167534 872.942627,115.786560 873.032227,135.404907 
	C873.062134,141.948898 875.386780,147.626129 879.933533,152.508942 
	C885.030396,157.982574 891.690491,159.847672 898.588013,160.719376 
	C907.625610,161.861526 916.334595,160.143845 924.547607,156.024429 
	C927.109314,154.739578 927.469482,152.850555 926.771118,150.443573 
	C924.990845,144.308060 923.176636,138.182404 921.426514,132.224838 
	C917.485168,133.126343 913.488525,135.047501 909.754333,134.628738 
	C905.497864,134.151413 902.774780,130.469330 902.000000,125.038269 
M784.000000,55.500000 
	C784.000000,38.074619 784.000000,20.649239 784.000000,3.297441 
	C774.013794,3.297441 764.611145,3.297441 755.290283,3.297441 
	C755.290283,54.987251 755.290283,106.379105 755.290283,157.702591 
	C764.986145,157.702591 774.388733,157.702591 784.000000,157.702591 
	C784.000000,123.770416 784.000000,90.135208 784.000000,55.500000 
M840.000000,82.500000 
	C840.000000,71.739319 840.000000,60.978642 840.000000,50.297329 
	C830.012756,50.297329 820.610840,50.297329 811.291260,50.297329 
	C811.291260,86.321442 811.291260,122.047478 811.291260,157.702728 
	C820.987122,157.702728 830.389038,157.702728 840.000000,157.702728 
	C840.000000,132.770737 840.000000,108.135368 840.000000,82.500000 
z" />
	<path fill="#06003B" opacity="1.000000" stroke="none" d="
M536.468628,201.000000 
	C529.285522,198.661880 522.437622,196.637527 515.908813,193.862610 
	C512.258179,192.311005 508.952240,189.732803 505.888428,187.146362 
	C504.957642,186.360596 504.615448,183.586990 505.264923,182.434769 
	C508.806793,176.151184 512.742310,170.089447 516.914307,163.350693 
	C523.056152,171.023239 531.114929,175.337265 540.198486,176.492294 
	C551.751892,177.961365 563.941895,178.866516 572.516907,168.646957 
	C575.740967,164.804581 577.415405,159.374313 578.819153,154.392609 
	C579.765198,151.035141 578.999451,147.195343 578.999451,142.683838 
	C572.251892,149.445099 565.153076,154.478867 556.377686,156.065674 
	C541.543518,158.748032 527.641052,157.101364 515.835327,146.401398 
	C505.897766,137.394592 501.605011,126.045670 499.847046,113.007828 
	C498.102264,100.068115 499.261749,87.709587 504.015228,75.662811 
	C510.333038,59.651424 524.537659,48.993023 542.794983,47.925297 
	C556.861389,47.102665 568.740173,51.219254 578.784790,62.349819 
	C578.784790,57.950005 578.784790,54.253510 578.784790,50.284863 
	C588.615173,50.284863 598.019897,50.284863 608.000000,50.284863 
	C608.000000,51.827961 608.000000,53.426334 608.000000,55.024704 
	C608.000000,89.002068 608.343872,122.984154 607.876648,156.955093 
	C607.575439,178.857758 592.060364,194.628128 571.470093,198.987503 
	C569.093506,199.490662 566.680298,199.821075 564.142090,200.615799 
	C554.979126,201.000000 545.958191,201.000000 536.468628,201.000000 
M532.312073,87.164436 
	C531.782349,89.013588 531.319397,90.884956 530.712158,92.708290 
	C526.787964,104.491310 529.047302,115.387474 537.195251,124.282120 
	C545.573547,133.428162 560.290039,132.998840 570.443298,127.050980 
	C576.588684,123.450974 579.913025,118.783646 579.157227,111.081795 
	C578.430054,103.671021 579.070557,96.131752 578.940796,88.651894 
	C578.914612,87.144333 578.544434,85.305656 577.630066,84.201744 
	C566.061157,70.234695 542.921570,69.587341 532.312073,87.164436 
z" />
	<path fill="#06003B" opacity="1.000000" stroke="none" d="
M942.468506,201.000000 
	C940.767761,200.491837 939.535583,199.983673 937.904541,199.311050 
	C939.308960,191.105438 940.746643,182.705704 942.186218,174.294479 
	C946.272766,174.538300 950.141479,174.956497 954.010864,174.963364 
	C963.917603,174.980942 971.385376,163.370880 967.678955,154.208221 
	C954.085876,120.604996 940.593018,86.961220 927.092041,53.320839 
	C926.738037,52.438778 926.723389,51.420547 926.508850,50.236420 
	C936.832397,50.236420 947.180969,50.236420 957.468933,50.236420 
	C966.454224,74.201897 975.431213,98.145370 984.897461,123.393616 
	C988.644104,113.230606 991.921387,104.325027 995.210083,95.423668 
	C1000.488708,81.136230 1005.696350,66.821213 1011.193848,52.618427 
	C1011.678528,51.366154 1014.059937,50.156528 1015.592224,50.115383 
	C1024.410400,49.878616 1033.238159,50.000015 1042.531372,50.000000 
	C1043.000000,51.066669 1043.000000,52.133339 1042.642334,53.709259 
	C1034.264771,73.948082 1026.181641,93.652161 1018.243103,113.414368 
	C1010.306580,133.171814 1002.551270,153.002014 994.642761,172.770828 
	C991.121399,181.573120 986.928040,190.130081 978.302002,194.982727 
	C973.570374,197.644470 968.124023,199.035812 963.000000,201.000000 
	C956.312378,201.000000 949.624695,201.000000 942.468506,201.000000 
z" />
	<path fill="#FFFFFF" opacity="1.000000" stroke="none" d="
M963.468628,201.000000 
	C968.124023,199.035812 973.570374,197.644470 978.302002,194.982727 
	C986.928040,190.130081 991.121399,181.573120 994.642761,172.770828 
	C1002.551270,153.002014 1010.306580,133.171814 1018.243103,113.414368 
	C1026.181641,93.652161 1034.264771,73.948082 1042.642334,54.109253 
	C1043.000000,102.905388 1043.000000,151.810776 1043.000000,201.000000 
	C1016.646423,201.000000 990.291870,201.000000 963.468628,201.000000 
z" />
	<path fill="#FEAC26" opacity="1.000000" stroke="none" d="
M2.132544,158.015045 
	C2.004242,153.817291 1.875939,149.619537 1.373818,145.210892 
	C1.000000,97.979103 1.000000,50.958210 1.000000,3.468657 
	C1.809243,3.953484 2.618486,4.906969 3.592701,6.299837 
	C4.586631,8.989340 5.235530,11.326930 6.278191,13.473235 
	C9.450371,20.003136 12.774561,26.459188 15.867804,33.323288 
	C15.075397,39.776237 14.482924,45.852936 13.828089,51.922901 
	C12.570523,63.579849 11.275788,75.232780 9.999948,86.887764 
	C9.101457,95.095596 8.156524,103.298782 7.326128,111.513527 
	C6.196257,122.690857 5.155823,133.877228 4.063889,145.506165 
	C4.046932,148.661057 4.043122,151.369537 4.025530,154.042511 
	C4.011747,154.007034 4.087833,154.004242 3.814563,154.161057 
	C3.382122,154.908432 3.222952,155.498993 3.034778,156.386444 
	C2.714696,157.127243 2.423619,157.571136 2.132544,158.015045 
z" />
	<path fill="#06003B" opacity="1.000000" stroke="none" d="
M829.550049,1.000000 
	C837.664734,4.738144 843.746521,9.797734 842.932617,19.304409 
	C842.051575,29.596186 835.759399,34.705643 825.964783,35.904743 
	C818.054321,36.873173 809.404236,29.210306 808.032715,20.649334 
	C806.971436,14.025256 812.694885,2.853376 820.893372,1.354732 
	C823.700012,1.000000 826.400024,1.000000 829.550049,1.000000 
z" />
	<path fill="#06003B" opacity="1.000000" stroke="none" d="
M415.767334,129.271240 
	C425.556824,138.438202 442.323547,139.330063 454.527863,133.741348 
	C458.599426,131.876862 462.364471,129.343048 466.558075,126.950668 
	C470.720947,132.924866 474.943756,138.985123 479.289886,145.222305 
	C471.685608,152.859665 462.391998,156.784836 452.358246,158.925888 
	C439.952209,161.573166 427.582672,161.752594 415.163177,158.081100 
	C396.038727,152.427460 380.791412,135.954926 377.906860,115.332565 
	C376.242340,103.432449 376.909393,92.036507 381.553680,80.870911 
	C388.690002,63.714211 401.507843,52.995464 419.371185,49.189770 
	C434.904968,45.880379 450.163635,47.288303 463.726135,56.958202 
	C475.141510,65.097214 482.036499,76.279221 484.858002,89.751709 
	C486.482697,97.509453 486.713257,105.559166 487.621033,113.935852 
	C460.531372,113.935852 434.438599,113.935852 407.810425,113.935852 
	C408.818420,120.135460 411.353638,124.966133 415.767334,129.271240 
M438.511871,71.935150 
	C424.544434,68.131477 409.592834,76.841553 407.199921,93.746582 
	C424.107849,93.746582 441.003296,93.746582 457.872559,93.746582 
	C458.699524,85.181221 449.999115,73.301186 438.511871,71.935150 
z" />
	<path fill="#06003B" opacity="1.000000" stroke="none" d="
M284.362152,154.756622 
	C268.192902,146.276138 258.808105,133.490829 255.921814,115.689163 
	C253.165771,98.690605 255.680069,82.980362 266.044891,69.016312 
	C274.007660,58.288486 284.733398,51.465103 297.898224,49.064926 
	C310.960388,46.683460 323.912048,46.971806 335.969910,53.494884 
	C351.075348,61.666618 359.945953,74.556328 362.867737,91.277283 
	C364.132050,98.512718 363.960419,105.999077 364.466400,113.759720 
	C337.714508,113.759720 311.641632,113.759720 285.517303,113.759720 
	C287.567871,127.535675 299.708984,136.160629 310.314697,136.980850 
	C322.786896,137.945419 334.198303,135.134720 344.157166,126.302383 
	C348.622131,132.982239 352.785400,139.210709 356.920990,145.397812 
	C342.509888,160.507568 307.830078,166.054749 284.362152,154.756622 
M292.596008,94.000000 
	C307.021637,94.000000 321.447235,94.000000 335.895447,94.000000 
	C335.149475,81.204651 325.356842,72.041489 313.238007,71.072945 
	C298.254547,69.875450 286.840210,79.100876 285.162415,94.000000 
	C287.341797,94.000000 289.484833,94.000000 292.596008,94.000000 
z" />
	<path fill="#06003B" opacity="1.000000" stroke="none" d="
M663.090332,73.966919 
	C657.698425,76.919533 652.766418,79.928864 647.699341,82.690559 
	C646.730652,83.218529 644.437561,83.255196 644.096802,82.698097 
	C640.500061,76.817581 637.175415,70.770607 633.854858,64.909279 
	C650.412903,49.980774 670.118347,46.213730 690.984009,48.197960 
	C705.442200,49.572872 718.529541,54.894562 724.767395,69.659218 
	C726.606323,74.012024 727.795349,78.979515 727.859009,83.684563 
	C728.170166,106.671768 728.000000,129.665497 728.000000,152.656906 
	C728.000000,154.285461 728.000000,155.914017 728.000000,157.768875 
	C718.245300,157.768875 708.837952,157.768875 699.054688,157.768875 
	C699.054688,154.948120 699.054688,152.222122 699.054688,148.876099 
	C688.856323,157.438065 677.495667,161.350708 665.026550,160.889801 
	C648.055664,160.262482 631.064636,149.333115 628.785889,129.611099 
	C626.250854,107.671066 640.595154,92.644562 659.815735,90.785942 
	C671.232605,89.681931 681.680054,91.192635 691.717834,96.346054 
	C694.097046,97.567528 696.215454,99.296799 698.999756,101.157295 
	C698.999756,95.890297 699.262634,91.278297 698.936401,86.708351 
	C698.478943,80.299706 694.154846,76.308838 688.755310,74.138741 
	C680.522949,70.830170 671.946716,70.872879 663.090332,73.966919 
M691.147583,137.972626 
	C691.871216,137.622055 692.642578,137.344818 693.310974,136.909485 
	C699.399170,132.944550 701.692932,120.712921 696.956665,116.547531 
	C688.702209,109.287987 672.563721,106.888496 662.804016,114.684036 
	C655.397888,120.599640 656.578064,132.726700 664.807495,137.413605 
	C673.315796,142.259354 681.748901,141.412613 691.147583,137.972626 
z" />
	<path fill="#06003B" opacity="1.000000" stroke="none" d="
M163.000000,13.028862 
	C163.000000,9.554412 163.000000,6.574580 163.000000,2.787968 
	C173.363007,3.270659 183.481293,3.741951 193.500000,4.208605 
	C193.500000,46.745579 193.500000,89.081818 193.500000,131.826874 
	C212.290146,131.826874 231.358749,131.826874 250.712082,131.826874 
	C250.712082,141.297440 250.712082,150.365997 250.712082,160.000000 
	C246.837753,160.000000 242.899719,160.000000 238.961700,160.000000 
	C222.634445,160.000000 206.304245,159.831726 189.982040,160.118790 
	C185.921478,160.190216 183.509781,158.447906 181.260818,155.685944 
	C175.498444,148.609177 169.684647,141.572937 164.030212,134.410919 
	C163.013657,133.123322 162.095673,131.316116 162.085556,129.742691 
	C161.956024,109.584366 161.870422,89.423859 162.038132,69.266090 
	C162.192734,50.683842 162.666702,32.104244 163.000000,13.028862 
z" />
	<path fill="#06003B" opacity="1.000000" stroke="none" d="
M902.000427,125.483551 
	C902.774780,130.469330 905.497864,134.151413 909.754333,134.628738 
	C913.488525,135.047501 917.485168,133.126343 921.426514,132.224838 
	C923.176636,138.182404 924.990845,144.308060 926.771118,150.443573 
	C927.469482,152.850555 927.109314,154.739578 924.547607,156.024429 
	C916.334595,160.143845 907.625610,161.861526 898.588013,160.719376 
	C891.690491,159.847672 885.030396,157.982574 879.933533,152.508942 
	C875.386780,147.626129 873.062134,141.948898 873.032227,135.404907 
	C872.942627,115.786560 873.000000,96.167534 873.000000,76.141022 
	C867.017029,76.141022 861.274719,76.141022 855.271240,76.141022 
	C855.271240,67.339912 855.271240,58.941940 855.271240,50.132683 
	C860.990417,50.132683 866.733398,50.132683 872.870605,50.132683 
	C872.870605,40.334560 872.870605,30.931589 872.870605,21.267778 
	C882.667297,21.267778 892.064026,21.267778 901.868225,21.267778 
	C901.868225,30.663319 901.868225,40.066204 901.868225,49.869789 
	C909.328979,49.869789 916.402039,49.869789 923.733215,49.869789 
	C923.733215,58.669827 923.733215,67.067299 923.733215,75.875206 
	C916.665710,75.875206 909.592346,75.875206 902.000000,75.875206 
	C902.000000,92.530807 902.000000,108.784538 902.000427,125.483551 
z" />
	<path fill="#06003B" opacity="1.000000" stroke="none" d="
M784.000000,56.000000 
	C784.000000,90.135208 784.000000,123.770416 784.000000,157.702591 
	C774.388733,157.702591 764.986145,157.702591 755.290283,157.702591 
	C755.290283,106.379105 755.290283,54.987251 755.290283,3.297441 
	C764.611145,3.297441 774.013794,3.297441 784.000000,3.297441 
	C784.000000,20.649239 784.000000,38.074619 784.000000,56.000000 
z" />
	<path fill="#06003B" opacity="1.000000" stroke="none" d="
M840.000000,83.000000 
	C840.000000,108.135368 840.000000,132.770737 840.000000,157.702728 
	C830.389038,157.702728 820.987122,157.702728 811.291260,157.702728 
	C811.291260,122.047478 811.291260,86.321442 811.291260,50.297329 
	C820.610840,50.297329 830.012756,50.297329 840.000000,50.297329 
	C840.000000,60.978642 840.000000,71.739319 840.000000,83.000000 
z" />
	<path fill="#FE827B" opacity="1.000000" stroke="none" d="
M9.072153,11.893141 
	C10.630403,12.664374 12.513721,13.103437 13.695211,14.259662 
	C22.729753,23.101002 31.672058,32.038074 40.559425,41.028042 
	C65.323288,66.077774 90.072998,91.141617 114.775520,116.251808 
	C128.047119,129.742416 141.216461,143.333694 154.404007,156.906693 
	C155.060730,157.582611 155.450424,158.517944 155.560440,159.653427 
	C153.101028,159.350220 151.045624,158.726074 148.755478,158.048248 
	C148.520737,157.994583 148.047928,157.906494 147.843521,157.596283 
	C139.767014,154.467453 131.894897,151.648865 123.976730,148.488831 
	C119.223747,142.203552 114.677330,136.123657 109.776909,130.343887 
	C99.180893,117.846474 88.358864,105.540985 77.712502,93.085869 
	C66.748131,80.258705 55.866222,67.360893 44.979057,54.467953 
	C36.441544,44.357552 28.002758,34.163105 19.388796,24.118605 
	C17.949795,22.440626 15.840578,21.337408 14.025103,19.984451 
	C14.009151,20.000301 14.031793,19.966976 14.022789,19.616753 
	C13.350056,18.504784 12.686327,17.743038 11.759572,16.774555 
	C10.688415,15.009592 9.880284,13.451366 9.072153,11.893141 
z" />
	<path fill="#DE4F4F" opacity="1.000000" stroke="none" d="
M8.917322,11.600691 
	C9.880284,13.451366 10.688415,15.009592 11.775852,17.098980 
	C12.714036,18.409088 13.372914,19.188032 14.031793,19.966976 
	C14.031793,19.966976 14.009151,20.000301 14.044630,20.337254 
	C15.729092,23.138273 17.343718,25.626158 19.032692,28.062504 
	C29.221489,42.759857 39.448074,57.431046 49.622593,72.138260 
	C65.067802,94.464226 80.480827,116.812469 95.523582,139.092178 
	C89.981506,137.365509 84.778336,135.823288 79.679108,133.991684 
	C75.399429,132.454468 71.240936,130.579895 67.011276,128.498611 
	C60.995197,116.743462 55.079128,105.299927 48.969368,93.960754 
	C44.818287,86.256714 40.395645,78.698997 36.070038,70.679276 
	C32.716034,63.845272 29.386433,57.407837 25.905869,50.654152 
	C22.516457,44.539928 19.278013,38.741959 16.039568,32.943993 
	C12.774561,26.459188 9.450371,20.003136 6.278191,13.473235 
	C5.235530,11.326930 4.586631,8.989340 3.881279,6.460011 
	C5.590754,7.889947 7.176622,9.599094 8.917322,11.600691 
z" />
	<path fill="#903FF8" opacity="1.000000" stroke="none" d="
M2.082350,158.346710 
	C2.423619,157.571136 2.714696,157.127243 3.323098,156.250671 
	C3.789560,155.213425 3.938697,154.608841 4.087833,154.004242 
	C4.087833,154.004242 4.011747,154.007034 4.347286,153.851364 
	C6.086691,150.121857 7.490557,146.548004 9.310962,143.032898 
	C11.179424,143.393234 12.618010,143.820465 14.085414,143.976303 
	C24.266779,145.057587 34.461376,146.017029 44.637608,147.143188 
	C55.625706,148.359177 66.600769,149.694641 77.577179,151.014084 
	C87.570137,152.215317 97.547653,153.551041 107.549637,154.669525 
	C118.046204,155.843277 128.563782,156.829254 139.489594,157.913528 
	C142.601486,158.282990 145.295929,158.636230 148.243240,158.999146 
	C148.664764,159.012375 148.833420,159.015945 148.704208,159.311584 
	C142.271378,159.737198 136.136398,159.870743 129.532684,160.002960 
	C86.764793,160.003708 44.465656,160.005753 2.166520,160.007812 
	C2.121732,159.564667 2.076945,159.121536 2.082350,158.346710 
z" />
	<path fill="#873AF1" opacity="1.000000" stroke="none" d="
M2.336350,160.396988 
	C44.465656,160.005753 86.764793,160.003708 129.530823,160.209290 
	C129.997711,160.416931 129.993088,160.829712 129.993088,160.829712 
	C87.497452,160.815186 45.001816,160.800674 2.336350,160.396988 
z" />
	<path fill="#8F3DE4" opacity="1.000000" stroke="none" d="
M130.457825,160.898895 
	C129.993088,160.829712 129.997711,160.416931 129.999573,160.210602 
	C136.136398,159.870743 142.271378,159.737198 148.705521,159.081818 
	C149.004684,158.559982 148.990219,158.101929 148.990219,158.101929 
	C151.045624,158.726074 153.101028,159.350220 155.519012,160.004944 
	C152.385620,160.356384 148.895004,160.845703 145.392395,160.957184 
	C140.573868,161.110565 135.746277,160.978088 130.457825,160.898895 
z" />
	<path fill="#FFFFFF" opacity="1.000000" stroke="none" d="
M532.603333,86.908440 
	C542.921570,69.587341 566.061157,70.234695 577.630066,84.201744 
	C578.544434,85.305656 578.914612,87.144333 578.940796,88.651894 
	C579.070557,96.131752 578.430054,103.671021 579.157227,111.081795 
	C579.913025,118.783646 576.588684,123.450974 570.443298,127.050980 
	C560.290039,132.998840 545.573547,133.428162 537.195251,124.282120 
	C529.047302,115.387474 526.787964,104.491310 530.712158,92.708290 
	C531.319397,90.884956 531.782349,89.013588 532.603333,86.908440 
z" />
	<path fill="#EF991B" opacity="1.000000" stroke="none" d="
M15.867804,33.323288 
	C19.278013,38.741959 22.516457,44.539928 25.889023,51.081890 
	C24.874384,57.809998 23.874672,63.827316 22.550165,69.772270 
	C17.708582,91.503387 12.820768,113.224785 7.786663,134.911835 
	C6.978396,138.393875 5.334591,141.681976 4.077036,145.059723 
	C5.155823,133.877228 6.196257,122.690857 7.326128,111.513527 
	C8.156524,103.298782 9.101457,95.095596 9.999948,86.887764 
	C11.275788,75.232780 12.570523,63.579849 13.828089,51.922901 
	C14.482924,45.852936 15.075397,39.776237 15.867804,33.323288 
z" />
	<path fill="#D98313" opacity="1.000000" stroke="none" d="
M4.063890,145.506165 
	C5.334591,141.681976 6.978396,138.393875 7.786663,134.911835 
	C12.820768,113.224785 17.708582,91.503387 22.550165,69.772270 
	C23.874672,63.827316 24.874384,57.809998 26.039989,51.398148 
	C29.386433,57.407837 32.716034,63.845272 36.027107,71.069267 
	C35.888123,72.491051 35.857094,73.159691 35.634064,73.756584 
	C30.763868,86.790520 25.872334,99.816475 20.657663,113.014252 
	C18.282944,118.134178 16.235453,123.083809 14.111254,128.408401 
	C12.321171,133.513626 10.607795,138.243896 8.894421,142.974167 
	C7.490557,146.548004 6.086691,150.121857 4.361069,153.886841 
	C4.043122,151.369537 4.046932,148.661057 4.063890,145.506165 
z" />
	<path fill="#D98313" opacity="1.000000" stroke="none" d="
M3.814563,154.161057 
	C3.938697,154.608841 3.789560,155.213425 3.352103,155.953796 
	C3.222952,155.498993 3.382122,154.908432 3.814563,154.161057 
z" />
	<path fill="#FFFFFF" opacity="1.000000" stroke="none" d="
M438.943787,71.964584 
	C449.999115,73.301186 458.699524,85.181221 457.872559,93.746582 
	C441.003296,93.746582 424.107849,93.746582 407.199921,93.746582 
	C409.592834,76.841553 424.544434,68.131477 438.943787,71.964584 
z" />
	<path fill="#FFFFFF" opacity="1.000000" stroke="none" d="
M292.111938,94.000000 
	C289.484833,94.000000 287.341797,94.000000 285.162415,94.000000 
	C286.840210,79.100876 298.254547,69.875450 313.238007,71.072945 
	C325.356842,72.041489 335.149475,81.204651 335.895447,94.000000 
	C321.447235,94.000000 307.021637,94.000000 292.111938,94.000000 
z" />
	<path fill="#FFFFFF" opacity="1.000000" stroke="none" d="
M690.744629,137.987885 
	C681.748901,141.412613 673.315796,142.259354 664.807495,137.413605 
	C656.578064,132.726700 655.397888,120.599640 662.804016,114.684036 
	C672.563721,106.888496 688.702209,109.287987 696.956665,116.547531 
	C701.692932,120.712921 699.399170,132.944550 693.310974,136.909485 
	C692.642578,137.344818 691.871216,137.622055 690.744629,137.987885 
z" />
	<path fill="#F26966" opacity="1.000000" stroke="none" d="
M95.907524,139.151245 
	C80.480827,116.812469 65.067802,94.464226 49.622593,72.138260 
	C39.448074,57.431046 29.221489,42.759857 19.032692,28.062504 
	C17.343718,25.626158 15.729092,23.138273 14.060582,20.321404 
	C15.840578,21.337408 17.949795,22.440626 19.388796,24.118605 
	C28.002758,34.163105 36.441544,44.357552 44.979057,54.467953 
	C55.866222,67.360893 66.748131,80.258705 77.712502,93.085869 
	C88.358864,105.540985 99.180893,117.846474 109.776909,130.343887 
	C114.677330,136.123657 119.223747,142.203552 123.597763,148.539612 
	C114.145744,145.671646 105.026634,142.411453 95.907524,139.151245 
z" />
	<path fill="#5B20CC" opacity="1.000000" stroke="none" d="
M95.523582,139.092178 
	C105.026634,142.411453 114.145744,145.671646 123.643829,148.881058 
	C131.894897,151.648865 139.767014,154.467453 147.822662,157.867249 
	C148.000946,158.628784 147.995667,158.809113 147.990387,158.989471 
	C145.295929,158.636230 142.601486,158.282990 139.387451,157.554718 
	C138.361221,156.811188 137.902451,156.232071 137.341049,156.104431 
	C112.054199,150.355728 86.752693,144.671463 61.465595,138.923843 
	C45.695976,135.339508 29.946486,131.666611 14.187962,128.033447 
	C16.235453,123.083809 18.282944,118.134178 20.997305,113.186020 
	C36.785713,118.409889 51.907249,123.632278 67.028786,128.854675 
	C71.240936,130.579895 75.399429,132.454468 79.679108,133.991684 
	C84.778336,135.823288 89.981506,137.365509 95.523582,139.092178 
z" />
	<path fill="#F26966" opacity="1.000000" stroke="none" d="
M14.022789,19.616753 
	C13.372914,19.188032 12.714036,18.409088 12.038877,17.305717 
	C12.686327,17.743038 13.350056,18.504784 14.022789,19.616753 
z" />
	<path fill="#7530E2" opacity="1.000000" stroke="none" d="
M148.243240,158.999130 
	C147.995667,158.809113 148.000946,158.628784 148.027069,158.177460 
	C148.047928,157.906494 148.520737,157.994583 148.755478,158.048248 
	C148.990219,158.101929 149.004684,158.559982 149.003372,158.789749 
	C148.833420,159.015945 148.664764,159.012375 148.243240,158.999130 
z" />
	<path fill="#FFFFFF" opacity="1.000000" stroke="none" d="
M67.011276,128.498611 
	C51.907249,123.632278 36.785713,118.409889 21.324535,113.015732 
	C25.872334,99.816475 30.763868,86.790520 35.634064,73.756584 
	C35.857094,73.159691 35.888123,72.491051 36.051510,71.465836 
	C40.395645,78.698997 44.818287,86.256714 48.969368,93.960754 
	C55.079128,105.299927 60.995197,116.743462 67.011276,128.498611 
z" />
	<path fill="#7530E2" opacity="1.000000" stroke="none" d="
M14.111254,128.408401 
	C29.946486,131.666611 45.695976,135.339508 61.465595,138.923843 
	C86.752693,144.671463 112.054199,150.355728 137.341049,156.104431 
	C137.902451,156.232071 138.361221,156.811188 138.970016,157.538483 
	C128.563782,156.829254 118.046204,155.843277 107.549637,154.669525 
	C97.547653,153.551041 87.570137,152.215317 77.577179,151.014084 
	C66.600769,149.694641 55.625706,148.359177 44.637608,147.143188 
	C34.461376,146.017029 24.266779,145.057587 14.085414,143.976303 
	C12.618010,143.820465 11.179424,143.393234 9.310961,143.032898 
	C10.607795,138.243896 12.321171,133.513626 14.111254,128.408401 
z" />
</svg>
